# xmcd
#
# Track frame offsets: 
#        150
#        63762
#        94532
#        128092
#        158015
#        231530
#        243220
#        268270
#
# Disc length: 3850 seconds
#
# Revision: 3
# Processed by: cddbd v1.5.2PL0 Copyright (c) Steve Scherf et al.
# Submitted via: ExactAudioCopy v1.3
#
DISCID=620f0808
DTITLE=Royal Concertgebouw Orchestra - RCO 125 anniversary edition - Th
DTITLE=e Radio Legacy, CD 020 [Willem Mengelberg, chief conductor 1895
DTITLE=1945]
DYEAR=2013
DGENRE=Classical
TTITLE0=Richard Wagner: Tannhäuser (1845), WWV 70 - I. Overtüre
TTITLE1=Claude Debussy: Fantasía para piano y orquesta (1889-1890), CD
TTITLE1=72 L.73 - I. Andante ma non troppo 
TTITLE2=Claude Debussy: Fantasía para piano y orquesta (1889-1890), CD
TTITLE2=72 L.73 - II. Lento e molto espressivo
TTITLE3=Claude Debussy: Fantasía para piano y orquesta (1889-1890), CD
TTITLE3=72 L.73 - III. Allegro molto
TTITLE4=Maurice Ravel: Daphnis et Chloé, suite No. 2 (1913)
TTITLE5=Hector Berlioz: La damnation de Faust (1846), op. 24 - Parte I
TTITLE5=I - Scène VII - XVII. Ballet des Sylphes
TTITLE6=Hector Berlioz: La damnation de Faust (1846), op. 24 - Parte I
TTITLE6=II - Scène XII - XXVIII. Menuet des feux follets
TTITLE7=Hector Berlioz: La damnation de Faust (1846), op. 24 - Parte I
TTITLE7=Scène III - IV. Marche hongroise
EXTD=YEAR: 1940
EXTT0=
EXTT1=
EXTT2=
EXTT3=
EXTT4=
EXTT5=
EXTT6=
EXTT7=
PLAYORDER=
